<?xml version="1.0" standalone="no"?>
<!DOCTYPE svg PUBLIC "-//W3C//DTD SVG 20010904//EN"
 "http://www.w3.org/TR/2001/REC-SVG-20010904/DTD/svg10.dtd">
<svg version="1.0" xmlns="http://www.w3.org/2000/svg"
 width="145.000000pt" height="38.000000pt" viewBox="0 0 145.000000 38.000000"
 preserveAspectRatio="xMidYMid meet">

<g transform="translate(0.000000,38.000000) scale(0.100000,-0.100000)"
fill="#000000" stroke="none">
<path d="M40 368 c113 -48 152 -72 177 -109 19 -29 24 -46 20 -69 l-7 -30 108
0 c183 0 289 -33 355 -110 l35 -41 17 29 c22 37 85 78 150 98 30 10 104 18
187 21 l137 6 -5 27 c-12 57 58 130 155 161 77 25 50 29 -175 29 l-231 0 -11
-24 c-16 -36 -50 -54 -115 -62 l-57 -7 -6 33 c-6 26 -9 29 -16 16 -12 -21 -54
-21 -66 0 -7 13 -10 10 -16 -16 l-6 -33 -57 7 c-65 8 -99 26 -115 62 l-11 24
-236 -1 c-176 0 -230 -3 -211 -11z"/>
</g>
</svg>
